<?xml version="1.0" encoding="UTF-8"?>
<svg id="Capa_1" data-name="Capa 1" xmlns="http://www.w3.org/2000/svg" viewBox="0 0 792 612">
  <defs>
    <style>
      .cls-1 {
        fill: #202123;
      }

      .cls-2, .cls-3 {
        fill: #00a0af;
      }

      .cls-3 {
        fill-rule: evenodd;
      }
    </style>
  </defs>
  <g>
    <path class="cls-3" d="M652.21,219.09c1.39-.83,2.34-2.43,2.51-4.62.21-4.01-2.28-8.56-5.66-10.35-3.6-1.76-6.99.05-7.48,4.22-.29,2.31.34,4.79,1.6,6.86,4.43,7.6,2.09,18.5-5.14,21.65-3.27,1.37-5.99,4.49-7.03,8.72-1.81,6.94,1.65,13.83,7.53,15.25,3.37.85,6.8-.46,9.31-3.06,4.75-5.15,11.37-4.44,13.73.57.25.6.63,1.01,1.1,1.13,1.16.29,2.48-1.24,3.01-3.46.48-2.16.01-4.29-1.1-4.76-.46-.14-.95-.06-1.42.26-11.1,7.06-24.53-24.67-10.96-32.42"/>
    <path class="cls-3" d="M579.88,224.8c-1.18-2.34-3.33-4.16-6.06-4.85-5.09-1.26-10.32,1.85-11.76,6.96-1.41,5.14,1.51,10.44,6.59,11.82,2.74.76,5.54.22,7.78-1.24,8.32-5.39,20.68-1.48,24.2,7.88,1.47,3.94,4.71,7.1,9,8.2,6.9,1.8,13.91-2.52,15.76-9.6,1.08-4.26.03-8.64-2.48-11.83-5.21-6.56-4.21-17.2,1.48-21.92.66-.56,1.17-1.32,1.36-2.26.47-2.41-1.17-5.02-3.68-5.88-2.5-.81-5.01.44-5.53,2.88-.23.94-.08,1.95.3,2.86,7.16,18.16-26.96,36.52-36.96,16.99"/>
    <path class="cls-3" d="M588.79,300.47c-2.18.86-3.84,2.36-4.45,4.23-1.16,3.3,1.64,6.5,6.1,7.27,4.35.66,9.01-1.24,10.45-4.36.75-1.77.45-3.58-.75-5.02-4.61-5.79-.67-15.71,8.19-19.03,3.73-1.47,6.83-4.51,8.12-8.46,2.11-6.7-1.66-13.58-8.56-15.3-4.3-1.08-8.75.08-12.01,2.75-6.57,5.31-17.67,3.88-23.14-2.55-.66-.79-1.57-1.41-2.65-1.71-2.73-.77-5.46.79-6.12,3.46-.62,2.67,1.03,5.43,3.71,6.21,1.07.32,2.12.28,3.05-.05,18.8-6.62,36.15,24.51,18.06,32.57"/>
    <path class="cls-3" d="M653.04,285.44c.16,1.27.8,2.02,1.93,1.83,1.82-.34,4.47-3.36,6.13-6.81,1.52-3.5,1.47-6.42-.32-6.52-1.1-.07-2.48.74-3.81,2.16-5.29,5.21-12.41,4.07-13.82-3.05-.75-3.15-2.98-5.68-6.35-6.42-5.88-1.31-12.6,3.02-14.74,9.63-1.34,3.92-.63,7.61,1.41,10.09,3.93,4.59,1.46,12.72-4.39,17.03-.75.52-1.32,1.14-1.69,1.85-.88,1.73.05,3.17,2.11,3.23,2.07,0,4.38-1.28,5.35-2.94.39-.67.52-1.32.39-1.84-3.43-12.23,25.07-30.94,27.79-18.24"/>
    <path class="cls-3" d="M635.93,305.57c.55,1.59,3.62.72,6.82-1.68,3.05-2.47,5.45-5.72,5.36-7.51-.33-2.05-3.47-1.74-7.03.95-3.66,2.6-5.93,6.38-5.15,8.25"/>
    <path class="cls-3" d="M662.82,233.27c1.43,4.05,4.05,5.51,5.73,3.38,1.37-1.95,1.49-6.5.39-10.32-1.28-3.82-3.59-5.73-5.28-4.01-2.01,1.81-2.44,6.82-.84,10.95"/>
    <path class="cls-3" d="M658.55,205.27c1.29,2.44,3.16,3.86,4.07,3.11.77-.69.38-3.05-.83-5.4-1.23-2.24-2.91-3.74-3.83-3.3-1,.59-.77,3.1.59,5.58"/>
    <path class="cls-3" d="M629.9,224.73c1.16,2.1,3.58,2.89,5.38,1.76,1.77-1.07,2.26-3.64,1.13-5.71-1.14-2.05-3.51-2.87-5.31-1.84-1.83,1.09-2.39,3.65-1.19,5.8"/>
    <path class="cls-3" d="M632.3,195.7c1.23,1.87,3.45,2.73,4.97,1.99,1.49-.69,1.65-2.73.46-4.51-.47-.69-1.13-1.29-1.81-1.67-3.18-1.77-9.39-11.09-8.51-13.44.33-.95-.05-2.21-1.12-3.39-1.76-1.88-4.87-3.05-6.93-2.57-2.12.57-2.48,2.69-.74,4.73.9,1.06,2.2,1.9,3.47,2.34,3.77,1.38,9.92,10.81,9.46,13.71-.15.84.1,1.87.75,2.83"/>
    <path class="cls-3" d="M595.88,216.06c1.27,2.13,4.04,2.89,6.19,1.69,2.12-1.19,2.8-3.84,1.52-5.94-1.25-2.07-4.01-2.83-6.14-1.69-2.11,1.17-2.85,3.82-1.57,5.94"/>
    <path class="cls-3" d="M640.96,180.89c1.18,1.43,2.95,2.45,3.9,2.27.85-.17.57-1.4-.62-2.77-1.16-1.3-2.85-2.36-3.75-2.3-.94.12-.73,1.38.47,2.79"/>
    <path class="cls-3" d="M598.1,320.77c1.17.82,3.98.83,6.42.06,2.41-.83,3.64-2.24,2.59-3.19-1.06-1.08-4.1-1.21-6.6-.26-2.55.9-3.56,2.43-2.4,3.38"/>
    <path class="cls-3" d="M563.93,314.23c1.2,1.1,3.45,1.73,4.99,1.4,1.6-.36,1.97-1.6.8-2.78-1.2-1.23-3.54-1.88-5.17-1.45-1.57.4-1.86,1.66-.62,2.82"/>
    <path class="cls-3" d="M536.01,301.28c1.72,1.95,4.31,3.32,5.89,3.05.88-.15,1.25-.8,1.27-1.6-.06-2.82,14.46-7.8,19.58-4.77,2.81,1.59,6.32,2,9.19.8,4.35-1.86,5.65-6.66,2.84-10.75-2.8-4.24-8.72-5.94-13.07-3.79-2.62,1.3-4,3.72-3.94,6.31.24,4.99-14.86,9.13-18.58,7.07-1.33-.77-2.67-1.11-3.59-.79-1.51.47-1.32,2.45.39,4.49"/>
    <path class="cls-3" d="M540.22,270.5c1.18,2,3.53,2.89,5.25,1.95,1.76-.98,2.23-3.43,1-5.53-1.19-2.05-3.58-2.88-5.32-1.87-1.69,1-2.09,3.43-.93,5.44"/>
    <path class="cls-3" d="M581.28,252.81c1.27,2.18,4.08,2.93,6.28,1.68,2.19-1.26,2.95-4.06,1.68-6.26-1.27-2.2-4.1-2.96-6.3-1.69-2.19,1.27-2.94,4.07-1.66,6.27"/>
  </g>
  <path class="cls-1" d="M648.9,335.1h18.68v18.39h-18.68v30.55c0,3.36.79,5.78,2.37,7.27,1.58,1.48,4.15,2.22,7.71,2.22h8.6v17.65h-10.08c-19.48,0-29.21-8.7-29.21-26.1v-31.59h-10.97v-18.39h10.97v-19.57h20.61v19.57Z"/>
  <g>
    <path class="cls-1" d="M145.3,411.17h-22.99v-101.58h22.99v101.58Z"/>
    <path class="cls-1" d="M175.85,335.1v7.71c2.08-2.47,5.06-4.6,8.97-6.38,3.9-1.78,8.28-2.67,13.12-2.67,8.9,0,16.02,2.82,21.35,8.45,5.34,5.63,8.01,13.05,8.01,22.24v46.71h-20.46v-43.15c0-4.55-1.24-8.23-3.71-11.05-2.47-2.82-5.88-4.23-10.23-4.23-5.04,0-9.1,1.51-12.16,4.52-3.07,3.02-4.6,7.14-4.6,12.38v41.52h-20.61v-76.07h20.32Z"/>
    <path class="cls-1" d="M322.51,333.61c11.66,0,21.4,3.83,29.21,11.49,7.81,7.66,11.72,17.08,11.72,28.25s-3.91,20.44-11.72,28.1c-7.81,7.66-17.55,11.49-29.21,11.49s-21.38-3.8-29.14-11.42c-7.76-7.61-11.64-17-11.64-28.18s3.9-20.46,11.72-28.18c7.81-7.71,17.5-11.57,29.07-11.57ZM337.12,358.3c-3.91-4-8.77-6.01-14.61-6.01s-10.7,2-14.61,6.01c-3.91,4-5.86,9.02-5.86,15.05s1.9,11.2,5.71,15.2c3.81,4,8.58,6.01,14.31,6.01s10.77-2.03,14.83-6.08c4.05-4.05,6.08-9.09,6.08-15.13s-1.95-11.05-5.86-15.05Z"/>
    <path class="cls-1" d="M390.43,335.1v7.71c2.08-2.47,5.06-4.6,8.97-6.38,3.9-1.78,8.28-2.67,13.12-2.67,8.9,0,16.02,2.82,21.35,8.45,5.34,5.63,8.01,13.05,8.01,22.24v75.37h-20.46v-71.81c0-4.55-1.24-8.23-3.71-11.05-2.47-2.82-5.88-4.23-10.23-4.23-5.04,0-9.1,1.51-12.16,4.52-3.07,3.02-4.6,7.14-4.6,12.38v41.52h-20.61v-76.07h20.32Z"/>
    <path class="cls-1" d="M509.51,411.17v-5.64c-5.74,4.45-13.15,6.67-22.24,6.67-10.48,0-19.5-3.73-27.06-11.2-7.56-7.46-11.34-16.63-11.34-27.51s3.78-20.12,11.34-27.73c7.56-7.61,16.58-11.42,27.06-11.42,8.99,0,16.41,2.27,22.24,6.82v-6.08h20.61v76.07h-20.61ZM489.04,353.04c-5.64,0-10.38,2-14.24,6.01-3.86,4-5.78,8.82-5.78,14.46s1.93,10.58,5.78,14.53c3.85,3.95,8.6,5.93,14.24,5.93,5.93,0,10.87-1.98,14.83-5.93,3.95-3.95,5.93-8.8,5.93-14.53s-2.03-10.45-6.08-14.46c-4.05-4-8.95-6.01-14.68-6.01Z"/>
    <path class="cls-1" d="M610.2,411.17h-20.32v-7.56c-5.64,5.93-13,8.9-22.1,8.9s-16.01-2.82-21.35-8.45c-5.34-5.64-8.01-13.05-8.01-22.24v-46.71h20.46v43.15c0,4.55,1.26,8.23,3.78,11.05,2.52,2.82,5.95,4.23,10.31,4.23,5.04,0,9.09-1.51,12.16-4.52,3.06-3.01,4.6-7.14,4.6-12.38v-41.52h20.46v76.07Z"/>
    <g>
      <g>
        <path class="cls-2" d="M274.02,325.46h257.29v-7.76h-9.1c-1.03,2.71-3.64,4.65-6.72,4.65s-5.69-1.93-6.72-4.65h-228.86c-9.84,0-16.34.84-20.49,5.11-3.53,3.64-3.43,10.44-3.31,18.32.02,1.53.05,3.1.05,4.71v65.35h7.77v-57.69h17.2v-18.39h-17.2v-.74c0-5.93,3.36-8.91,10.08-8.91Z"/>
        <circle class="cls-2" cx="515.49" cy="315.17" r="3.86"/>
      </g>
      <path class="cls-2" d="M273.44,304.84c-10.24,0-17.51,2.22-22.55,6.67-5.04,4.45-7.56,12.21-7.56,22.7v.89h-11.86v18.39h11.86v57.69h7.84v-65.35c0-1.58-.02-3.12-.05-4.63-.14-8.99-.26-16.75,4.72-21.88,5.36-5.52,13.19-6.63,24.08-6.63h228.84c1.01-2.75,3.64-4.71,6.74-4.71s5.73,1.96,6.74,4.71h9.08v-7.85h-257.87Z"/>
    </g>
    <g>
      <path class="cls-1" d="M128.88,439.99c-1.93,0-3.42-.41-4.49-1.23-1.07-.82-1.66-1.96-1.76-3.43h3.5c.04.62.29,1.12.73,1.53s1.15.6,2.11.6c.86,0,1.51-.14,1.97-.42.46-.28.69-.65.69-1.1,0-.21-.06-.39-.19-.56s-.27-.31-.43-.41-.41-.21-.77-.31-.64-.18-.85-.23c-.21-.05-.56-.12-1.04-.22-.47-.11-.83-.19-1.08-.25-.26-.05-.61-.15-1.06-.3-.45-.14-.81-.28-1.06-.42-.26-.14-.55-.32-.87-.55-.32-.23-.57-.48-.75-.75s-.32-.59-.45-.98-.19-.82-.19-1.28c0-1.26.51-2.29,1.55-3.09,1.03-.8,2.45-1.2,4.25-1.2s3.28.42,4.32,1.25c1.05.83,1.63,1.96,1.75,3.36h-3.52c-.08-1.35-.96-2.03-2.64-2.03-.71,0-1.27.13-1.69.38-.42.25-.63.61-.63,1.06,0,.23.06.44.19.62s.27.33.44.44c.17.11.42.22.76.34s.63.2.87.26c.24.05.59.13,1.04.23.51.11.88.19,1.12.24s.59.14,1.07.28c.48.14.84.27,1.08.39s.53.29.87.51c.34.22.59.45.77.71.17.25.32.56.45.92.13.36.19.76.19,1.2,0,1.31-.55,2.38-1.65,3.2-1.1.82-2.63,1.23-4.6,1.23Z"/>
      <path class="cls-1" d="M159.39,440.01c-2.27,0-4.21-.7-5.8-2.1-1.59-1.4-2.39-3.13-2.39-5.2s.8-3.82,2.39-5.22c1.59-1.4,3.53-2.1,5.8-2.1s4.26.7,5.83,2.09,2.36,3.13,2.36,5.21-.79,3.84-2.36,5.23c-1.57,1.4-3.52,2.09-5.83,2.09ZM156.1,435.81c.89.83,1.99,1.25,3.29,1.25s2.41-.42,3.29-1.25,1.33-1.87,1.33-3.12-.44-2.25-1.33-3.09-1.99-1.26-3.29-1.26-2.41.42-3.29,1.26-1.33,1.88-1.33,3.11.44,2.26,1.33,3.1Z"/>
      <path class="cls-1" d="M194.48,434.74h-6.84v4.99h-3.5v-14.05h10.92v2.91h-7.42v3.36h6.84v2.79Z"/>
      <path class="cls-1" d="M219.12,439.73h-3.5v-11.14h-4.6v-2.91h12.7v2.91h-4.6v11.14Z"/>
      <path class="cls-1" d="M252.59,439.73l-2.71-8.68-2.66,8.68h-4.15l-3.77-14.05h3.68l2.37,10.09,3.09-10.09h3.09l3.07,10.2,2.46-10.2h3.48l-3.77,14.05h-4.17Z"/>
      <path class="cls-1" d="M285.06,439.73l-.88-2.42h-6.07l-.88,2.42h-3.59l5.46-14.05h4.29l5.44,14.05h-3.77ZM283.14,434.49l-2.01-5.5-2.01,5.5h4.02Z"/>
      <path class="cls-1" d="M308.44,434.95v4.78h-3.5v-14.05h6.59c1.62,0,2.92.43,3.88,1.29s1.44,1.99,1.44,3.38c0,1.11-.38,2.08-1.14,2.9-.76.83-1.79,1.36-3.08,1.59l4.92,4.88h-4.56l-4.56-4.78ZM311.01,428.59h-2.57v3.75h2.46c.75,0,1.35-.17,1.78-.52s.65-.8.65-1.34-.2-1.02-.6-1.36-.97-.52-1.73-.52Z"/>
      <path class="cls-1" d="M333.84,439.73v-14.05h11.3v2.87h-7.81v2.65h7.22v2.79h-7.22v2.87h7.83v2.87h-11.33Z"/>
      <path class="cls-1" d="M391.84,439.73l-.88-2.42h-6.07l-.88,2.42h-3.59l5.46-14.05h4.29l5.44,14.05h-3.77ZM389.92,434.49l-2.01-5.5-2.01,5.5h4.02Z"/>
    </g>
    <g>
      <path class="cls-1" d="M475.04,439.73l-4.17-8.39v8.39h-3.36v-14.05h4.2l4.54,9.29,4.54-9.29h4.2v14.05h-3.43v-8.43l-4.2,8.43h-2.3Z"/>
      <path class="cls-1" d="M510.2,439.73v-14.05h11.3v2.87h-7.81v2.65h7.22v2.79h-7.22v2.87h7.83v2.87h-11.33Z"/>
      <path class="cls-1" d="M546.42,439.73v-14.05h6.32c2.33,0,4.23.66,5.69,1.99,1.46,1.33,2.19,2.98,2.19,4.96s-.75,3.7-2.26,5.06c-1.5,1.36-3.44,2.04-5.8,2.04h-6.14ZM552.56,428.59h-2.64v8.23h2.75c1.26,0,2.32-.39,3.16-1.18.84-.79,1.26-1.77,1.26-2.96s-.43-2.15-1.29-2.92c-.86-.77-1.94-1.16-3.25-1.16Z"/>
      <path class="cls-1" d="M588.98,439.73h-3.5v-14.05h3.5v14.05Z"/>
      <path class="cls-1" d="M614.18,439.73v-14.05h6.32c2.33,0,4.23.66,5.69,1.99,1.46,1.33,2.19,2.98,2.19,4.96s-.75,3.7-2.26,5.06c-1.5,1.36-3.44,2.04-5.8,2.04h-6.14ZM620.32,428.59h-2.64v8.23h2.75c1.26,0,2.32-.39,3.16-1.18.84-.79,1.26-1.77,1.26-2.96s-.43-2.15-1.29-2.92c-.86-.77-1.94-1.16-3.25-1.16Z"/>
      <path class="cls-1" d="M662.61,439.73l-.88-2.42h-6.07l-.88,2.42h-3.59l5.46-14.05h4.29l5.44,14.05h-3.77ZM660.69,434.49l-2.01-5.5-2.01,5.5h4.02Z"/>
    </g>
  </g>
</svg>